# Blender v2.93.4 OBJ File: ''
# www.blender.org
mtllib character.mtl
o Cube
v 1.000000 3.667919 -1.000000
v 1.000000 -1.000000 -1.000000
v 1.000000 3.667919 1.000000
v 1.000000 -1.000000 1.000000
v -1.000000 3.667919 -1.000000
v -1.000000 -1.000000 -1.000000
v -1.000000 3.667919 1.000000
v -1.000000 -1.000000 1.000000
v 1.000000 1.803143 0.424368
v 2.400092 1.803143 0.424368
v 1.000000 2.797754 0.424368
v 2.400092 2.797754 0.424368
v 1.000000 1.803143 -0.499069
v 2.400092 1.803143 -0.499069
v 1.000000 2.797754 -0.499069
v 2.400092 2.797754 -0.499069
v -0.999999 1.715974 -0.495879
v -2.519687 1.715974 -0.495879
v -0.999999 2.734653 -0.495879
v -2.519687 2.734653 -0.495879
v -0.999999 1.715974 0.441997
v -2.519687 1.715974 0.441997
v -0.999999 2.734653 0.441997
v -2.519687 2.734653 0.441997
vt 0.625000 0.500000
vt 0.875000 0.500000
vt 0.875000 0.750000
vt 0.625000 0.750000
vt 0.375000 0.750000
vt 0.625000 1.000000
vt 0.375000 1.000000
vt 0.375000 0.000000
vt 0.625000 0.000000
vt 0.625000 0.250000
vt 0.375000 0.250000
vt 0.125000 0.500000
vt 0.375000 0.500000
vt 0.125000 0.750000
vt 0.375000 0.000000
vt 0.625000 0.000000
vt 0.625000 0.250000
vt 0.375000 0.250000
vt 0.625000 0.500000
vt 0.375000 0.500000
vt 0.625000 0.750000
vt 0.375000 0.750000
vt 0.625000 1.000000
vt 0.375000 1.000000
vt 0.125000 0.500000
vt 0.125000 0.750000
vt 0.875000 0.500000
vt 0.875000 0.750000
vt 0.375000 0.000000
vt 0.625000 0.000000
vt 0.625000 0.250000
vt 0.375000 0.250000
vt 0.625000 0.500000
vt 0.375000 0.500000
vt 0.625000 0.750000
vt 0.375000 0.750000
vt 0.625000 1.000000
vt 0.375000 1.000000
vt 0.125000 0.500000
vt 0.125000 0.750000
vt 0.875000 0.500000
vt 0.875000 0.750000
vn 0.0000 1.0000 0.0000
vn 0.0000 0.0000 1.0000
vn -1.0000 0.0000 0.0000
vn 0.0000 -1.0000 0.0000
vn 1.0000 0.0000 0.0000
vn 0.0000 0.0000 -1.0000
usemtl Material
s off
f 1/1/1 5/2/1 7/3/1 3/4/1
f 4/5/2 3/4/2 7/6/2 8/7/2
f 8/8/3 7/9/3 5/10/3 6/11/3
f 6/12/4 2/13/4 4/5/4 8/14/4
f 2/13/5 1/1/5 3/4/5 4/5/5
f 6/11/6 5/10/6 1/1/6 2/13/6
f 9/15/2 10/16/2 12/17/2 11/18/2
f 11/18/1 12/17/1 16/19/1 15/20/1
f 15/20/6 16/19/6 14/21/6 13/22/6
f 13/22/4 14/21/4 10/23/4 9/24/4
f 11/25/3 15/20/3 13/22/3 9/26/3
f 16/19/5 12/27/5 10/28/5 14/21/5
f 17/29/6 18/30/6 20/31/6 19/32/6
f 19/32/1 20/31/1 24/33/1 23/34/1
f 23/34/2 24/33/2 22/35/2 21/36/2
f 21/36/4 22/35/4 18/37/4 17/38/4
f 19/39/5 23/34/5 21/36/5 17/40/5
f 24/33/3 20/41/3 18/42/3 22/35/3
